# xmcd CD database file
#
# Track frame offsets:
#	225
#	26403
#	80135
#	130351
#	172242
#	218715
#	253365
#
# Disc length: 3901 seconds
#
# Revision: 0
# Processed by: cddbd v1.5.2PL0 Copyright (c) Steve Scherf et al.
# Submitted via: CDex 1.70beta2
#
DISCID=690f3a07
DTITLE=G.E. Stinson - Vapor
DYEAR=1999
DGENRE=Jazz
TTITLE0=Mechanical Ghost
TTITLE1=Dream Of Water Part 1
TTITLE2=Wooden Horse History
TTITLE3=The Pump
TTITLE4=Pocket
TTITLE5=Diagonal
TTITLE6=Dream Of Water Part 2
EXTD=YEAR: 1999
EXTT0=
EXTT1=
EXTT2=
EXTT3=
EXTT4=
EXTT5=
EXTT6=
PLAYORDER=
